<?xml version="1.0" encoding="UTF-8"?>
<!-- Created with Inkscape (http://www.inkscape.org/) -->
<svg id="svg1908" width="44.414mm" height="44.414mm" version="1.1" viewBox="0 0 44.414 44.414" xmlns="http://www.w3.org/2000/svg" xmlns:cc="http://creativecommons.org/ns#" xmlns:dc="http://purl.org/dc/elements/1.1/" xmlns:rdf="http://www.w3.org/1999/02/22-rdf-syntax-ns#" xmlns:xlink="http://www.w3.org/1999/xlink">
 <defs id="defs1902">
  <linearGradient id="linearGradient2411" x1="-229.45" x2="-227.05" y1="-243.85" y2="-241.49" gradientTransform="matrix(1.6102 0 0 1.5526 2.882 522.52)" gradientUnits="userSpaceOnUse" xlink:href="#linearGradient1108"/>
  <linearGradient id="linearGradient1108">
   <stop id="stop1104" offset="0"/>
   <stop id="stop1106" stop-opacity="0" offset="1"/>
  </linearGradient>
  <linearGradient id="linearGradient2407" x1="-229.21" x2="-226.89" y1="-243.95" y2="-241.62" gradientTransform="matrix(1.5346 0 0 1.4797 -7.9453 504.8)" gradientUnits="userSpaceOnUse" xlink:href="#linearGradient1108"/>
  <filter id="filter1784" x="-.12019" y="-.2387" width="1.229" height="1.4633" color-interpolation-filters="sRGB">
   <feGaussianBlur id="feGaussianBlur1786" stdDeviation="0.50762964"/>
  </filter>
  <linearGradient id="linearGradient2443" x1="-238.41" x2="-236.46" y1="-239.32" y2="-237.83" gradientTransform="matrix(.97612 0 0 .94123 -136.36 374.12)" gradientUnits="userSpaceOnUse" xlink:href="#linearGradient1108"/>
  <linearGradient id="linearGradient2433" x1="-228.03" x2="-227.91" y1="-239.34" y2="-237.14" gradientTransform="matrix(.97612 0 0 .94123 -136.36 374.12)" gradientUnits="userSpaceOnUse" xlink:href="#linearGradient1108"/>
  <linearGradient id="linearGradient2329" x1="-300.93" x2="-276.34" y1="-49.635" y2="-40.33" gradientTransform="matrix(.97612 0 0 .94123 -69.781 203.35)" gradientUnits="userSpaceOnUse">
   <stop id="stop1068" offset="0"/>
   <stop id="stop1070" stop-color="#b3b3b3" stop-opacity="0" offset="1"/>
  </linearGradient>
  <linearGradient id="linearGradient2387" x1="-199.22" x2="-202.64" y1="-155.98" y2="-148.57" gradientTransform="matrix(.95873 .17685 -.1834 .92447 -206.22 332.79)" gradientUnits="userSpaceOnUse" xlink:href="#linearGradient1108"/>
  <linearGradient id="linearGradient2337" x1="-311.72" x2="-302.36" y1="-55.379" y2="-46.236" gradientTransform="matrix(.97612 0 0 .94123 -71.403 198.67)" gradientUnits="userSpaceOnUse" xlink:href="#linearGradient1108"/>
  <linearGradient id="linearGradient2393" x1="-199.22" x2="-202.64" y1="-155.98" y2="-148.57" gradientTransform="matrix(-.95873 .17685 .1834 .92447 -521.1 331.88)" gradientUnits="userSpaceOnUse" xlink:href="#linearGradient1108"/>
  <filter id="filter1309" x="-.06057" y="-.055375" width="1.117" height="1.1101" color-interpolation-filters="sRGB">
   <feGaussianBlur id="feGaussianBlur1311" stdDeviation="0.52847071"/>
  </filter>
  <linearGradient id="linearGradient1798" x1="-214.77" x2="-214.78" y1="210.03" y2="253.06" gradientTransform="matrix(.94123 0 0 .97612 374.61 136.36)" gradientUnits="userSpaceOnUse">
   <stop id="stop1792" stop-color="#3daee9" offset="0"/>
   <stop id="stop1800" stop-color="#3498db" offset=".51668"/>
   <stop id="stop1794" stop-color="#3daee9" offset="1"/>
  </linearGradient>
  <filter id="filter874" x="-.1174" y="-.23264" width="1.2599" height="1.4653" color-interpolation-filters="sRGB">
   <feGaussianBlur id="feGaussianBlur876" stdDeviation="0.150971"/>
  </filter>
 </defs>
 <metadata id="metadata1905">
  <rdf:RDF>
   <cc:Work rdf:about="">
    <dc:format>image/svg+xml</dc:format>
    <dc:type rdf:resource="http://purl.org/dc/dcmitype/StillImage"/>
    <dc:title/>
   </cc:Work>
  </rdf:RDF>
 </metadata>
 <g id="layer1" transform="translate(384.95 -129.06)">
  <ellipse id="circle2395" transform="rotate(90)" cx="152.3" cy="362.46" rx="20.155" ry="20.902" fill="url(#linearGradient1798)" opacity=".98"/>
  <text id="text1070" x="-383.18689" y="222.77434" fill="#4d4d4d" font-family="sans-serif" font-size="9.4534px" letter-spacing="0px" stroke-width=".23633" word-spacing="0px" style="line-height:1.25" xml:space="preserve"><tspan id="tspan1068" x="-383.18689" y="222.77434" fill="#4d4d4d" font-family="'League Spartan'" font-size="9.4534px" font-weight="800" stroke-width=".23633" style="font-feature-settings:normal;font-variant-caps:normal;font-variant-ligatures:normal;font-variant-numeric:normal">TOK   DON</tspan></text>
  <path id="path1072" d="m-364.27 220.86c-0.35377 2.004-1.7995 1.8345-1.4978 2.0981 0.29029 0.25362 1.6167 0.39898 2.6488-1.4697-0.0238 0.0298-0.61699-0.31255-0.78778-0.56906-0.26296-0.14131-0.36325-0.0594-0.36325-0.0594z" fill="#3daee7"/>
  <ellipse id="ellipse1052" cx="-375.31" cy="219.65" rx=".39604" ry=".42939" fill="#3daee7"/>
  <ellipse id="ellipse1054" cx="-349.56" cy="219.65" rx=".39604" ry=".42939" fill="#3daee7"/>
  <ellipse id="circle2263" transform="rotate(90)" cx="150.81" cy="362.46" rx="20.155" ry="20.902" fill="#93cee9" opacity=".98"/>
  <path id="path878" transform="matrix(.66217 .69154 -.71717 .6385 -.54103 304.24)" d="m-354.29 163.64c1.3229-0.47247 1.1812-2.1261 1.9844-2.1261s1.6064 0.37798 1.4647 1.2284c-0.14174 0.85045-3.449 0.8977-3.449 0.8977z" filter="url(#filter874)" opacity=".25" stroke="#000" stroke-width=".26458px"/>
  <path id="path1199" transform="matrix(.97612 0 0 .94123 -8.639 8.1766)" d="m-374.24 148.38c1.7529 1.7529 2.9077 2.44 5.887 2.5797 2.4885 0.0191 4.2834 14.726 14.634 14.607-1.8438-1.1104-3.7143-2.311-4.1638-8.2374 0 0 0.21186-5.4731 0.24656-6.3269 2.2583-0.33256 6.2374-0.25406 6.4817-0.40675 1.5875-1.3229 1.6867-1.2237 1.6867-3.3734s0.29765-3.8695-0.46303-4.7294c-0.76067-0.8599-3.2411-2.5136-3.2411-2.5136z" filter="url(#filter1309)" opacity=".169" stroke="#000" stroke-width=".26458px"/>
  <path id="path2391" d="m-358.05 151.46c0.9186 2.0698 1.6134 4.2063 3.0375 5.4231 1.169 0.99891 3.1955 2.1716 3.1452 2.3111-0.27296 0.49856-3.5704-0.24968-5.5351-1.4595 0 0-1.946-1.2866-2.2558-2.3499-0.50353 0.48144 0.0719-0.0778 0 0-0.50949 0.55132-0.23135-2.4202-0.23135-2.4202z" fill="url(#linearGradient2393)" opacity=".4"/>
  <path id="path2335" d="m-368.94 152.98-5.9227-5.6316-0.83433-4.8648 5.0221 1.0566 8.5375 5.2828z" fill="url(#linearGradient2337)" opacity=".2"/>
  <path id="path2339" d="m-368.24 151.38c-0.91861 2.0698-2.6465 5.2024-4.0706 6.4192-1.169 0.99892-3.1955 2.1716-3.1452 2.3111 0.27296 0.49856 4.0922-0.18704 5.4047-1.6482 1.6512-1.5921 3.1502-3.3634 3.5569-3.8665 0.65762 0.65203 0.81499 1.7897 0.88693 1.8675 0.50948 0.5513-0.79311-3.5786-0.79311-3.5786z" fill="url(#linearGradient2387)" opacity=".4"/>
  <path id="path2315" d="m-368.7 147.25c-1.9561 8.7784-6.2285 8.7788-6.2751 9.1454-0.0434 0.34151 3.2336 1.5501 7.3577-3.9141 3.3721-4.4678 1.8255-5.0498 1.8255-5.0498z" fill="#f6ffd5"/>
  <path id="path2317" d="m-357.05 147.25c1.9561 8.7784 5.712 8.7788 5.7586 9.1454 0.0433 0.34151-3.2336 1.5501-7.3577-3.9141-3.3721-4.4678-1.8255-5.0498-1.8255-5.0498z" fill="#f6ffd5"/>
  <path id="path2327" d="m-356.06 169.98c-1.9311-1.5382-3.7804-3.2152-6.8376-5.6394l-0.38015-21.504 8.8456-3.1129 2.8566 0.43936c2.4442 2.8674 7.8395 8.6331 9.9887 11.251-0.47222-0.0959 1.7657 5.8912-6.195 13.898-4.7875 4.8153-5.5973 3.7273-8.2781 4.6685z" fill="url(#linearGradient2329)" opacity=".5"/>
  <path id="path2417" d="m-359.17 150.47c0.25576-0.88994 2.6342-0.78572 2.8088-0.7449l-0.27135-0.83369-2.8364-0.22011z" fill="url(#linearGradient2433)" opacity=".296"/>
  <path id="path2435" d="m-369.62 150.33c0.20578-0.52597 0.44774-1.2227 0.55721-1.7076l2.4112-0.30816-0.77613 1.783c-0.2261-0.0878-1.8208-0.28729-2.1923 0.23276z" fill="url(#linearGradient2443)" opacity=".388"/>
  <path id="path1333" transform="matrix(1.1044 0 0 .94123 38.228 9.6708)" d="m-363.84 164.06c2.6894 2.2451 4.8426 3.3938 7.532 2.3882s3.0836-2.277 2.8965-3.0487c-4.3213-0.20477-12.292-2.558-12.292-2.558z" filter="url(#filter1784)" opacity=".3" stroke="#000" stroke-width=".24874px"/>
  <path id="path868" transform="matrix(.97612 0 0 .94123 -8.639 8.1766)" d="m-353.23 164.7c1.3229-0.47247 1.1812-2.1261 1.9844-2.1261s1.6064 0.37798 1.4647 1.2284c-0.14174 0.85045-3.449 0.8977-3.449 0.8977z" filter="url(#filter874)" opacity=".25" stroke="#000" stroke-width=".26458px"/>
  <path id="path2319" d="m-374.57 138.36h19.455c3.0157 0 4.653 3.0829 4.6395 5.285 0 2.661 0.0148 2.4536 0.0148 3.228 0 1.0192-1.4261 2.0444-2.1374 2.0444-1.1185 0-6.2971 2e-3 -6.2971 2e-3 -9e-3 0.3919-0.0107 0.52736-8e-3 4.3648 2e-3 2.4952 0.0975 4.9074 0.83121 6.6156 0.53406 1.2432 1.465 2.6072 3.075 2.7908 0.80959 0.0923 2.0726-0.2934 2.2972-0.54748 0.4048-0.45812-0.84213-1.8456 0.95633-1.5518 0.88631 0.14477 0.42703 1.5531 0.16998 1.948 1.1911 0.21861 1.6676 1.004 1.3594 1.5138-0.48486 0.8021-1.5997-0.1482-1.7968-0.1-3.6279 0.88791-4.636 2.1602-7.6275 1.7337-2.1646-0.30858-5.2546-2.0538-6.7514-5.7401-0.71436-1.7593-1.2581-4.0892-1.3187-6.6382-0.12309-5.1751-0.0204-4.3817-0.0204-4.3817l-3.7532-0.016c-2.0819-9e-3 -4.8028-2.2415-4.8028-4.5911 0-1.1317-3e-3 -3.5245-3e-3 -4.0104 0-0.49623 1.0242-1.9488 2.1705-1.9488z" fill="#4d4d4d"/>
  <path id="path2399" d="m-360.7 145.31 1.9379-2.976 4.0912 3.3913-1.9379 2.2839z" fill="url(#linearGradient2407)" opacity=".21006"/>
  <ellipse id="ellipse2321" transform="matrix(.51371 -.85797 .87373 .48642 0 0)" cx="-300.82" cy="-234.85" rx="1.7782" ry="1.3149" fill="#f6ffd5" opacity=".98"/>
  <path id="path2409" d="m-367.25 145.31 1.3179-2.705 4.594 3.758-1.6192 1.7792z" fill="url(#linearGradient2411)" opacity=".21006"/>
  <ellipse id="ellipse2323" transform="matrix(-.51371 -.85797 -.87373 .48642 0 0)" cx="52.511" cy="388.68" rx="1.8658" ry="1.3797" fill="#f6ffd5" opacity=".98"/>
  <text id="text1197" x="-365.85669" y="222.77434" fill="#3daee7" font-family="sans-serif" font-size="9.4534px" letter-spacing="0px" stroke-width=".23633" word-spacing="0px" style="line-height:1.25" xml:space="preserve"><tspan id="tspan1195" x="-365.85669" y="222.77434" fill="#3daee7" font-family="'League Spartan'" font-size="9.4534px" font-weight="800" stroke-width=".23633" style="font-feature-settings:normal;font-variant-caps:normal;font-variant-ligatures:normal;font-variant-numeric:normal">O</tspan></text>
  <path id="path1806" d="m-360.71 220.94c0.35377 2.004 1.7995 1.8345 1.4978 2.0981-0.29029 0.25362-1.6167 0.39898-2.6488-1.4697 0.0238 0.0298 0.61699-0.31255 0.78778-0.56906 0.26296-0.14131 0.36325-0.0594 0.36325-0.0594z" fill="#3daee7"/>
 </g>
</svg>
