<svg width="22" height="22" version="1.1" viewBox="0 0 22 22" xmlns="http://www.w3.org/2000/svg">
 <style type="text/css" id="current-color-scheme">.ColorScheme-Text{color:#232629}</style>
 <path d="m7.2812 7.1465-0.099609 0.46094c-0.52528 2.4349-1.3373 3.5711-1.9688 4.1367-0.31575 0.28279-0.58706 0.42606-0.79688 0.51953-0.10491 0.04673-0.19214 0.07902-0.28516 0.11914-0.046508 0.02006-0.092959 0.0376-0.16797 0.08789-0.07501 0.05029-0.23884 0.16247-0.27148 0.42774-0.028238 0.22957 0.071902 0.37654 0.14062 0.45898 0.068723 0.08244 0.13104 0.12616 0.19336 0.16406 0.12465 0.07581 0.25327 0.12035 0.40234 0.15234 0.29815 0.06398 0.67608 0.0642 1.1211-0.05273 0.89004-0.23388 2.0166-0.93902 3.2129-2.5762 0.96572-1.3216 1.2837-2.1023 1.3125-2.7031 0.014405-0.30042-0.065828-0.56469-0.19336-0.74219-0.12753-0.17749-0.35156-0.2832-0.35156-0.2832l-0.078125-0.03125zm0.81445 1.1523 0.84961 0.052734c-0.020319 0.22648-0.19203 0.84492-1.0703 2.0469-0.54593 0.74714-1.0506 1.2494-1.4922 1.584 0.6368-0.7385 1.2539-1.8685 1.7129-3.6836z" fill="currentColor"/>
 <path d="m14.619 7.1504-2.4551 0.13477-0.08203 0.03125s-0.22403 0.10571-0.35156 0.2832c-0.12753 0.17749-0.20581 0.44177-0.19141 0.74219 0.02881 0.60083 0.34677 1.3815 1.3125 2.7031 1.1963 1.6371 2.3209 2.3423 3.2109 2.5762 0.44502 0.11694 0.8249 0.11672 1.123 0.05273 0.14908-0.03199 0.2777-0.07654 0.40234-0.15234 0.06232-0.0379 0.12464-0.08162 0.19336-0.16406 0.06872-0.08244 0.16886-0.22942 0.14062-0.45898-0.02889-0.23478-0.17184-0.35568-0.24414-0.41016-0.0723-0.05448-0.11884-0.07467-0.16211-0.0957-0.08653-0.04207-0.15912-0.07362-0.25-0.11914-0.18175-0.091037-0.41985-0.2285-0.70313-0.50976-0.56656-0.56252-1.3164-1.7116-1.8438-4.1563zm-0.82422 1.1445c0.47743 1.9243 1.0933 3.0982 1.707 3.8281-0.5092-0.32022-1.0864-0.79512-1.7656-1.7246-0.87662-1.1997-1.0454-1.8153-1.0664-2.043z" fill="currentColor"/>
 <path d="m4.4609 2.0801c-0.55743 0-0.95599 0.36683-1.1738 0.70117-0.21784 0.33434-0.32812 0.61866-0.32812 0.96484 0 0.2813 0.00195 1.6515 0.00195 2.2988 0 0.87825 0.46796 1.6527 1.0723 2.2188 0.60431 0.56605 1.3598 0.95718 2.1387 0.96094l1.5049-0.043246 0.41895-0.88254c0.078307 0.00215 0.1236 0.017905 0.21484 0.021486 0.23919 0.00938 0.44402 0.029575 0.62305 0.048828-0.048562 0.29281-0.31421 1.009-1.127 2.2715l-0.089844 0.14062 0.00391 0.16797c0.035141 1.5271 0.33584 3.1487 0.76953 4.252 0.90294 2.2969 2.7544 3.4215 4.1758 3.6309 0.91644 0.13495 1.6093-0.01058 2.248-0.24023 0.59566-0.21417 1.1989-0.48132 2.0488-0.71289 0.0708 0.03674 0.14669 0.07824 0.26172 0.12109 0.14675 0.05467 0.33362 0.11272 0.57422 0.07813 0.2406-0.03459 0.51106-0.21251 0.64844-0.44727 0.20979-0.35842 0.1259-0.81261-0.10352-1.1094-0.11008-0.1424-0.32706-0.18096-0.49023-0.27539 0.02932-0.11238 0.09219-0.1905 0.10352-0.32617 0.01493-0.17878 0.01263-0.3828-0.09375-0.60742-0.10638-0.22462-0.37202-0.43807-0.64648-0.48438-0.30905-0.05215-0.58802-0.07807-0.87695 0.12305-0.14446 0.10056-0.2493 0.26734-0.28906 0.4082s-0.03418 0.25388-0.02539 0.3457c0.01006 0.10504 0.0244 0.14553 0.03906 0.21094-0.04314 0.01512-0.07549 0.03099-0.12695 0.04492-0.19924 0.05394-0.44914 0.07859-0.55273 0.06641-0.3021-0.03559-0.52759-0.17259-0.74024-0.40039-0.21264-0.22781-0.39137-0.54769-0.52344-0.86524-0.32271-0.77601-0.45995-2.6779-0.46094-4.084v-0.16016l-0.08594-0.13672c-0.2642-0.41264-0.55126-1.0468-0.7207-1.5566-0.05686-0.17111-0.0778-0.28543-0.10547-0.41016 0.19318-0.030394 0.34637-0.062313 0.61133-0.082031 0.21845-0.016257 0.26717-0.016599 0.41211-0.023437 0.04164 0.11381 0.07377 0.18427 0.16406 0.51562l0.10938 0.4043h0.41992c0.84574-2.342e-4 1.8502 0 2.1875 0 0.46954 0 0.7862-0.22179 1.1055-0.50586 0.31927-0.28407 0.62891-0.6751 0.62891-1.2148 0-0.44993-0.0097-0.33296-0.0098-1.8457v-0.00391c0.003775-0.7632-0.249-1.6073-0.75973-2.3105-0.51151-0.70436-1.3317-1.2676-2.3613-1.2676zm0 1.0977h10.795c0.64352 0 1.1135 0.31994 1.4727 0.81445 0.35912 0.49451 0.55569 1.1643 0.55273 1.6621v0.0039c0 1.527 0.0078 1.4129 0.0078 1.8496 0 0.044343-0.08671 0.23882-0.26172 0.39453-0.175 0.15571-0.4499 0.22852-0.375 0.22852-0.27674 0-1.0738-2.126e-4 -1.791 0-0.05805-0.18099-0.12804-0.43229-0.17382-0.52929-0.040372-0.085546-0.06579-0.1519-0.18164-0.25781-0.02896-0.026478-0.06444-0.056547-0.11523-0.083984-0.0254-0.013719-0.05512-0.025992-0.08789-0.037109s-0.10875-0.025311-0.10938-0.025391c-6.91e-4 -8.85e-5 -0.06814 0.00732-0.13476 0.013672l0.04492-0.017578s-0.38489 0.012228-0.82422 0.044922-0.86608 0.044657-1.2598 0.19336c-0.29465 0.11137-0.38803 0.38504-0.41211 0.5332-0.02408 0.14816-0.01417 0.26472 2e-3 0.38867 0.03224 0.24791 0.10435 0.51918 0.20312 0.81641 0.17827 0.53644 0.45671 1.1239 0.75586 1.627 0.0038 1.4369 0.06196 3.2348 0.54102 4.3867 0.16423 0.3949 0.39138 0.82396 0.73438 1.1914s0.8229 0.67255 1.4141 0.74219c0.28541 0.03358 0.54479-0.02224 0.79687-0.08008-0.5453 0.18803-1.1444 0.38943-1.5117 0.52148-0.55907 0.20101-0.97349 0.29696-1.7168 0.1875-0.98051-0.14438-2.5585-1.0191-3.3165-2.9473-0.35012-0.89063-0.63157-2.4114-0.67578-3.7793 0.71769-1.1512 1.1083-1.9566 1.1934-2.502 0.046185-0.29611 0.027469-0.56724-0.10352-0.80078-0.13098-0.23354-0.37163-0.36793-0.55469-0.4043-0.29725-0.059036-0.67269-0.076398-1.0156-0.089844-0.34293-0.013445-0.63086-0.015625-0.63086-0.015625l-0.43164-0.0039062-0.23438 0.92773-0.87891-0.0039063c-0.37624-0.0018175-0.95526-0.2526-1.3945-0.66406-0.43927-0.41146-0.72461-0.94971-0.72461-1.418 0-0.64977-0.00195-2.0232-0.00195-2.2988 0 0.0618 0.048648-0.21208 0.14844-0.36523 0.099789-0.15315 0.17729-0.20312 0.25586-0.20312z" fill="currentColor"/>
 <path transform="matrix(.50151 -.86515 .86689 .49849 0 0)" d="m1.3164 12.598c-0.38692 0-0.74689 0.10916-1.0371 0.32031-0.29022 0.21116-0.52148 0.55807-0.52148 0.96484 0 0.40677 0.23127 0.75173 0.52148 0.96289 0.29022 0.21116 0.65019 0.32031 1.0371 0.32031 0.38692 0 0.74885-0.10916 1.0391-0.32031 0.29022-0.21116 0.52148-0.55612 0.52148-0.96289 0-0.40677-0.23127-0.75369-0.52148-0.96484-0.29022-0.21116-0.65215-0.32031-1.0391-0.32031zm0 1.0977c0.17122 0 0.31703 0.05441 0.39258 0.10938 0.075544 0.05496 0.070312 0.07881 0.070312 0.07813 0-6.83e-4 0.00523 0.02121-0.070312 0.07617-0.075544 0.05497-0.22136 0.10938-0.39258 0.10938-0.17122 0-0.31508-0.05441-0.39062-0.10938-0.075544-0.05496-0.070312-0.07685-0.070312-0.07617 0 6.82e-4 -0.005232-0.02316 0.070312-0.07813 0.075544-0.05497 0.21941-0.10938 0.39062-0.10938z" fill="currentColor"/>
 <path transform="matrix(-.50151 -.86515 -.86689 .49849 0 0)" d="m-9.5195-6.0742c-0.40067 0-0.77304 0.11236-1.0723 0.33008-0.29922 0.21772-0.53711 0.57346-0.53711 0.99023 0 0.41677 0.23788 0.77056 0.53711 0.98828 0.29923 0.21772 0.6716 0.33203 1.0723 0.33203 0.40067 0 0.77304-0.11432 1.0723-0.33203s0.53516-0.57151 0.53516-0.98828c0-0.41677-0.23593-0.77252-0.53516-0.99023-0.29923-0.21772-0.6716-0.33008-1.0723-0.33008zm0 1.0977c0.18496 0 0.34123 0.059573 0.42578 0.12109 0.084554 0.061521 0.085937 0.092235 0.085937 0.10156 0 0.00933-0.00138 0.040041-0.085937 0.10156-0.084554 0.061521-0.24082 0.12109-0.42578 0.12109-0.18496 0-0.34318-0.059573-0.42773-0.12109-0.084553-0.061521-0.083984-0.092235-0.083984-0.10156 0-0.00933-5.69e-4 -0.040041 0.083984-0.10156 0.084554-0.061521 0.24277-0.12109 0.42773-0.12109z" fill="currentColor"/>
</svg>
