<?xml version="1.0" encoding="UTF-8" standalone="no"?>
<!-- Created with Inkscape (http://www.inkscape.org/) -->

<svg
   xmlns:dc="http://purl.org/dc/elements/1.1/"
   xmlns:cc="http://creativecommons.org/ns#"
   xmlns:rdf="http://www.w3.org/1999/02/22-rdf-syntax-ns#"
   xmlns:svg="http://www.w3.org/2000/svg"
   xmlns="http://www.w3.org/2000/svg"
   xmlns:xlink="http://www.w3.org/1999/xlink"
   xmlns:sodipodi="http://sodipodi.sourceforge.net/DTD/sodipodi-0.dtd"
   xmlns:inkscape="http://www.inkscape.org/namespaces/inkscape"
   width="44.414452mm"
   height="44.414452mm"
   viewBox="0 0 44.414452 44.414453"
   version="1.1"
   id="svg1908"
   inkscape:version="0.92.5 (2060ec1f9f, 2020-04-08)"
   sodipodi:docname="Tokodon-1.0-48px.svg"
   inkscape:export-filename="/home/piers/Pictures/Tokodon-1.0-48px.png"
   inkscape:export-xdpi="27.450001"
   inkscape:export-ydpi="27.450001">
  <defs
     id="defs1902">
    <linearGradient
       inkscape:collect="always"
       xlink:href="#linearGradient1108"
       id="linearGradient2411"
       gradientUnits="userSpaceOnUse"
       x1="-229.44569"
       y1="-243.84827"
       x2="-227.05226"
       y2="-241.48695"
       gradientTransform="matrix(1.64956,0,0,1.64956,11.538316,545.39592)" />
    <linearGradient
       inkscape:collect="always"
       id="linearGradient1108">
      <stop
         style="stop-color:#000000;stop-opacity:1;"
         offset="0"
         id="stop1104" />
      <stop
         style="stop-color:#000000;stop-opacity:0;"
         offset="1"
         id="stop1106" />
    </linearGradient>
    <linearGradient
       gradientTransform="matrix(1.5721147,0,0,1.5721147,0.44607562,526.57885)"
       inkscape:collect="always"
       xlink:href="#linearGradient1108"
       id="linearGradient2407"
       x1="-229.21419"
       y1="-243.94748"
       x2="-226.8869"
       y2="-241.61925"
       gradientUnits="userSpaceOnUse" />
    <filter
       inkscape:collect="always"
       style="color-interpolation-filters:sRGB"
       id="filter1784"
       x="-0.11200797"
       width="1.224016"
       y="-0.42857301"
       height="1.857146">
      <feGaussianBlur
         inkscape:collect="always"
         stdDeviation="0.50762964"
         id="feGaussianBlur1786" />
    </filter>
    <linearGradient
       gradientTransform="translate(-131.10865,387.73054)"
       inkscape:collect="always"
       xlink:href="#linearGradient1108"
       id="linearGradient2443"
       x1="-238.41002"
       y1="-239.3201"
       x2="-236.45972"
       y2="-237.8345"
       gradientUnits="userSpaceOnUse" />
    <linearGradient
       gradientTransform="translate(-131.10865,387.73054)"
       inkscape:collect="always"
       xlink:href="#linearGradient1108"
       id="linearGradient2433"
       x1="-228.02795"
       y1="-239.33594"
       x2="-227.91107"
       y2="-237.13763"
       gradientUnits="userSpaceOnUse" />
    <linearGradient
       inkscape:collect="always"
       xlink:href="#linearGradient1072"
       id="linearGradient2329"
       gradientUnits="userSpaceOnUse"
       gradientTransform="translate(-62.903007,206.30315)"
       x1="-300.9281"
       y1="-49.635426"
       x2="-276.33517"
       y2="-40.330318" />
    <linearGradient
       inkscape:collect="always"
       id="linearGradient1072">
      <stop
         style="stop-color:#000000;stop-opacity:1"
         offset="0"
         id="stop1068" />
      <stop
         style="stop-color:#b3b3b3;stop-opacity:0;"
         offset="1"
         id="stop1070" />
    </linearGradient>
    <linearGradient
       inkscape:collect="always"
       xlink:href="#linearGradient1108"
       id="linearGradient2387"
       x1="-199.22412"
       y1="-155.97678"
       x2="-202.63901"
       y2="-148.56844"
       gradientUnits="userSpaceOnUse"
       gradientTransform="rotate(10.82958,-1914.9973,-897.19386)" />
    <linearGradient
       inkscape:collect="always"
       xlink:href="#linearGradient1108"
       id="linearGradient2337"
       gradientUnits="userSpaceOnUse"
       gradientTransform="translate(-64.564132,201.33439)"
       x1="-311.71786"
       y1="-55.379398"
       x2="-302.35632"
       y2="-46.235657" />
    <linearGradient
       inkscape:collect="always"
       xlink:href="#linearGradient1108"
       id="linearGradient2393"
       gradientUnits="userSpaceOnUse"
       gradientTransform="matrix(-0.98219037,0.18788841,0.18788841,0.98219037,-525.26369,342.85384)"
       x1="-199.22412"
       y1="-155.97678"
       x2="-202.63901"
       y2="-148.56844" />
    <filter
       inkscape:collect="always"
       style="color-interpolation-filters:sRGB"
       id="filter1309"
       x="-0.051082619"
       width="1.1021652"
       y="-0.11530758"
       height="1.2306153">
      <feGaussianBlur
         inkscape:collect="always"
         stdDeviation="0.52847071"
         id="feGaussianBlur1311" />
    </filter>
    <linearGradient
       gradientTransform="translate(388.25971,131.10865)"
       inkscape:collect="always"
       xlink:href="#linearGradient1796"
       id="linearGradient1798"
       x1="-214.76616"
       y1="210.02693"
       x2="-214.7825"
       y2="253.05731"
       gradientUnits="userSpaceOnUse" />
    <linearGradient
       inkscape:collect="always"
       id="linearGradient1796">
      <stop
         style="stop-color:#3daee9;stop-opacity:1"
         offset="0"
         id="stop1792" />
      <stop
         id="stop1800"
         offset="0.51667607"
         style="stop-color:#3498db;stop-opacity:1" />
      <stop
         style="stop-color:#3daee9;stop-opacity:1"
         offset="1"
         id="stop1794" />
    </linearGradient>
    <filter
       inkscape:collect="always"
       style="color-interpolation-filters:sRGB"
       id="filter874"
       x="-0.10455663"
       width="1.2091134"
       y="-0.17041861"
       height="1.3408372">
      <feGaussianBlur
         inkscape:collect="always"
         stdDeviation="0.150971"
         id="feGaussianBlur876" />
    </filter>
  </defs>
  <sodipodi:namedview
     id="base"
     pagecolor="#ffffff"
     bordercolor="#666666"
     borderopacity="1.0"
     inkscape:pageopacity="0"
     inkscape:pageshadow="2"
     inkscape:zoom="5.6"
     inkscape:cx="53.623462"
     inkscape:cy="55.20358"
     inkscape:document-units="mm"
     inkscape:current-layer="layer1"
     showgrid="false"
     fit-margin-top="0"
     fit-margin-left="0"
     fit-margin-right="0"
     fit-margin-bottom="0"
     inkscape:window-width="1859"
     inkscape:window-height="1016"
     inkscape:window-x="40"
     inkscape:window-y="11"
     inkscape:window-maximized="0"
     inkscape:snap-global="false"
     showguides="true"
     inkscape:guide-bbox="true" />
  <metadata
     id="metadata1905">
    <rdf:RDF>
      <cc:Work
         rdf:about="">
        <dc:format>image/svg+xml</dc:format>
        <dc:type
           rdf:resource="http://purl.org/dc/dcmitype/StillImage" />
        <dc:title></dc:title>
      </cc:Work>
    </rdf:RDF>
  </metadata>
  <g
     inkscape:label="Layer 1"
     inkscape:groupmode="layer"
     id="layer1"
     transform="translate(384.95154,-129.06276)">
    <circle
       transform="rotate(90)"
       r="21.413485"
       cy="362.74432"
       cx="152.06372"
       id="circle2395"
       style="opacity:0.98000004;fill:url(#linearGradient1798);fill-opacity:1;stroke:none;stroke-width:1.02910209;stroke-opacity:1"
       inkscape:export-xdpi="20.215019"
       inkscape:export-ydpi="20.215019" />
    <text
       xml:space="preserve"
       style="font-style:normal;font-weight:normal;font-size:9.45335674px;line-height:1.25;font-family:sans-serif;letter-spacing:0px;word-spacing:0px;fill:#4d4d4d;fill-opacity:1;stroke:none;stroke-width:0.23633392"
       x="-383.18689"
       y="222.77434"
       id="text1070"><tspan
         sodipodi:role="line"
         id="tspan1068"
         x="-383.18689"
         y="222.77434"
         style="font-style:normal;font-variant:normal;font-weight:800;font-stretch:normal;font-size:9.45335674px;font-family:'League Spartan';-inkscape-font-specification:'League Spartan, Ultra-Bold';font-variant-ligatures:normal;font-variant-caps:normal;font-variant-numeric:normal;font-feature-settings:normal;text-align:start;writing-mode:lr-tb;text-anchor:start;fill:#4d4d4d;fill-opacity:1;stroke-width:0.23633392">TOK   DON</tspan></text>
    <path
       sodipodi:nodetypes="cscccc"
       inkscape:connector-curvature="0"
       id="path1072"
       d="m -364.27053,220.85928 c -0.35377,2.00395 -1.79954,1.8345 -1.49782,2.09812 0.29029,0.25362 1.61671,0.39898 2.64885,-1.46974 -0.0238,0.0298 -0.61699,-0.31255 -0.78778,-0.56906 -0.26296,-0.14131 -0.36325,-0.0594 -0.36325,-0.0594 z"
       style="fill:#3daee7;fill-opacity:1;stroke:none;stroke-width:0.09942084px;stroke-linecap:butt;stroke-linejoin:miter;stroke-opacity:1" />
    <ellipse
       style="opacity:1;fill:#3daee7;fill-opacity:1;stroke:none;stroke-width:0.18907632;stroke-opacity:1"
       id="ellipse1052"
       cx="-375.31015"
       cy="219.65315"
       rx="0.39604267"
       ry="0.42939362" />
    <ellipse
       style="opacity:1;fill:#3daee7;fill-opacity:1;stroke:none;stroke-width:0.18907632;stroke-opacity:1"
       id="ellipse1054"
       cx="-349.55811"
       cy="219.65315"
       rx="0.39604267"
       ry="0.42939362" />
    <circle
       inkscape:export-ydpi="20.215019"
       inkscape:export-xdpi="20.215019"
       style="opacity:0.98000004;fill:#93cee9;fill-opacity:1;stroke:none;stroke-width:1.02910209;stroke-opacity:1"
       id="circle2263"
       cx="150.47624"
       cy="362.74432"
       r="21.413485"
       transform="rotate(90)" />
    <path
       inkscape:connector-curvature="0"
       id="path878"
       d="m -354.28822,163.64039 c 1.32292,-0.47247 1.18117,-2.12612 1.98437,-2.12612 0.8032,0 1.6064,0.37798 1.46466,1.22842 -0.14174,0.85045 -3.44903,0.8977 -3.44903,0.8977 z"
       style="opacity:0.25;fill:#000000;stroke:#000000;stroke-width:0.26458332px;stroke-linecap:butt;stroke-linejoin:miter;stroke-opacity:1;filter:url(#filter874)"
       transform="rotate(47.283549,-354.05044,165.91973)" />
    <path
       style="opacity:0.169;fill:#000000;stroke:#000000;stroke-width:0.26458332px;stroke-linecap:butt;stroke-linejoin:miter;stroke-opacity:1;filter:url(#filter1309)"
       d="m -374.50183,147.3225 c 1.75287,1.75287 2.90766,2.44003 5.88698,2.57969 2.4885,0.0191 4.28342,14.72601 14.63352,14.60727 -1.84383,-1.11043 -3.71433,-2.31101 -4.16382,-8.23743 0,0 0.21186,-5.47311 0.24656,-6.32693 2.25831,-0.33256 6.23743,-0.25406 6.4817,-0.40675 1.5875,-1.32292 1.68672,-1.2237 1.68672,-3.37344 0,-2.14974 0.29765,-3.86953 -0.46303,-4.72942 -0.76067,-0.8599 -3.24114,-2.51355 -3.24114,-2.51355 z"
       id="path1199"
       inkscape:connector-curvature="0"
       sodipodi:nodetypes="cccsccsccc" />
    <path
       inkscape:transform-center-y="2.9994442"
       inkscape:transform-center-x="-2.8691791"
       sodipodi:nodetypes="cscccscc"
       inkscape:connector-curvature="0"
       id="path2391"
       d="m -358.22418,151.16776 c 0.94109,2.19906 1.6529,4.46893 3.11182,5.76174 1.19765,1.06129 3.27364,2.30721 3.22211,2.45543 -0.27963,0.52969 -3.65777,-0.26527 -5.67055,-1.55061 0,0 -1.99362,-1.36688 -2.31104,-2.49662 -0.51585,0.51149 0.0737,-0.0827 0,0 -0.52195,0.58573 -0.23701,-2.57127 -0.23701,-2.57127 z"
       style="opacity:0.4;fill:url(#linearGradient2393);fill-opacity:1;stroke:none;stroke-width:0.26458332px;stroke-linecap:butt;stroke-linejoin:miter;stroke-opacity:1" />
    <path
       sodipodi:nodetypes="cccccc"
       inkscape:connector-curvature="0"
       id="path2335"
       d="m -369.37947,152.79119 -6.06757,-5.98322 -0.85474,-5.1686 5.14494,1.12253 8.74639,5.61266 z"
       style="opacity:0.2;fill:url(#linearGradient2337);fill-opacity:1;stroke:none;stroke-width:0.26458332px;stroke-linecap:butt;stroke-linejoin:miter;stroke-opacity:1" />
    <path
       style="opacity:0.4;fill:url(#linearGradient2387);fill-opacity:1;stroke:none;stroke-width:0.26458332px;stroke-linecap:butt;stroke-linejoin:miter;stroke-opacity:1"
       d="m -368.65887,151.08271 c -0.94109,2.19906 -2.71123,5.52726 -4.17015,6.82007 -1.19765,1.06129 -3.27364,2.30721 -3.22211,2.45543 0.27963,0.52969 4.19231,-0.19871 5.53692,-1.75106 1.69155,-1.69155 3.22729,-3.57347 3.64392,-4.10789 0.67371,0.69274 0.83493,1.90143 0.90863,1.98414 0.52195,0.58573 -0.81251,-3.80202 -0.81251,-3.80202 z"
       id="path2339"
       inkscape:connector-curvature="0"
       sodipodi:nodetypes="cscccscc"
       inkscape:transform-center-x="2.8691742"
       inkscape:transform-center-y="2.9994442" />
    <path
       inkscape:transform-center-y="3.5094787"
       inkscape:transform-center-x="3.1383783"
       style="fill:#f6ffd5;stroke:none;stroke-width:0.30194554px;stroke-linecap:butt;stroke-linejoin:miter;stroke-opacity:1"
       d="m -369.13899,146.7031 c -2.00396,9.32655 -6.38092,9.32696 -6.42867,9.71639 -0.0445,0.36284 3.31271,1.64691 7.53776,-4.15847 3.45459,-4.74673 1.87016,-5.36506 1.87016,-5.36506 z"
       id="path2315"
       inkscape:connector-curvature="0"
       sodipodi:nodetypes="csscc" />
    <path
       sodipodi:nodetypes="csscc"
       inkscape:connector-curvature="0"
       id="path2317"
       d="m -357.20361,146.7031 c 2.00397,9.32655 5.85175,9.32696 5.8995,9.71639 0.0445,0.36284 -3.31271,1.64691 -7.53776,-4.15847 -3.45459,-4.74673 -1.87016,-5.36506 -1.87016,-5.36506 z"
       style="fill:#f6ffd5;stroke:none;stroke-width:0.30194554px;stroke-linecap:butt;stroke-linejoin:miter;stroke-opacity:1"
       inkscape:transform-center-x="-3.1383802"
       inkscape:transform-center-y="3.5094787" />
    <path
       sodipodi:nodetypes="ccccccsc"
       inkscape:connector-curvature="0"
       id="path2327"
       d="m -356.18144,170.84801 c -1.97837,-1.63429 -3.8729,-3.41598 -7.00488,-5.99155 l -0.38946,-22.84707 9.06198,-3.30729 2.92648,0.46679 c 2.50405,3.04642 8.03128,9.17216 10.23307,11.95321 -0.48377,-0.10185 1.80895,6.25903 -6.34653,14.76594 -4.90463,5.11598 -5.7342,3.96008 -8.48066,4.95997 z"
       style="opacity:0.5;fill:url(#linearGradient2329);fill-opacity:1;stroke:none;stroke-width:0.26458332px;stroke-linecap:butt;stroke-linejoin:miter;stroke-opacity:1" />
    <path
       style="opacity:0.29600004;fill:url(#linearGradient2433);fill-opacity:1;stroke:none;stroke-width:0.26458332px;stroke-linecap:butt;stroke-linejoin:miter;stroke-opacity:1"
       d="m -359.36816,150.11853 c 0.26202,-0.9455 2.69866,-0.83477 2.87751,-0.79141 l -0.27799,-0.88574 -2.90584,-0.23386 z"
       id="path2417"
       inkscape:connector-curvature="0"
       sodipodi:nodetypes="ccccc" />
    <path
       style="opacity:0.38800001;fill:url(#linearGradient2443);fill-opacity:1;stroke:none;stroke-width:0.26458332px;stroke-linecap:butt;stroke-linejoin:miter;stroke-opacity:1"
       d="m -370.0822,149.97492 c 0.21081,-0.55882 0.45868,-1.29903 0.57084,-1.81417 l 2.47021,-0.32741 -0.79512,1.89428 c -0.23163,-0.0933 -1.86536,-0.30522 -2.24593,0.2473 z"
       id="path2435"
       inkscape:connector-curvature="0"
       sodipodi:nodetypes="ccccc" />
    <path
       style="opacity:0.3;fill:#000000;stroke:#000000;stroke-width:0.24874347px;stroke-linecap:butt;stroke-linejoin:miter;stroke-opacity:1;filter:url(#filter1784)"
       d="m -363.83614,164.05812 c 2.6894,2.24506 4.84261,3.39383 7.53201,2.38823 2.6894,-1.0056 3.0836,-2.277 2.89652,-3.04874 -4.32126,-0.20477 -12.29245,-2.55799 -12.29245,-2.55799 z"
       id="path1333"
       inkscape:connector-curvature="0"
       sodipodi:nodetypes="csccc"
       transform="matrix(1.1314139,0,0,1,47.749459,0.52916667)" />
    <path
       style="opacity:0.25;fill:#000000;stroke:#000000;stroke-width:0.26458332px;stroke-linecap:butt;stroke-linejoin:miter;stroke-opacity:1;filter:url(#filter874)"
       d="m -353.49448,163.64039 c 1.32292,-0.47247 1.18117,-2.12612 1.98437,-2.12612 0.8032,0 1.6064,0.37798 1.46466,1.22842 -0.14174,0.85045 -3.44903,0.8977 -3.44903,0.8977 z"
       id="path868"
       inkscape:connector-curvature="0" />
    <path
       sodipodi:nodetypes="cscsccssssscssssscssccc"
       inkscape:connector-curvature="0"
       id="path2319"
       d="m -375.15276,137.25853 h 19.93134 c 3.08947,0 4.76682,3.27541 4.75298,5.61504 0,2.82714 0.0152,2.60683 0.0152,3.42959 0,1.0828 -1.46101,2.17202 -2.1897,2.17202 -1.14585,0 -6.45118,0.002 -6.45118,0.002 -0.009,0.41637 -0.011,0.56028 -0.008,4.6373 0.002,2.65098 0.0999,5.21378 0.85154,7.02865 0.54713,1.32088 1.50083,2.76997 3.15026,2.96507 0.8294,0.0981 2.12335,-0.31172 2.35336,-0.58167 0.4147,-0.48672 -0.86273,-1.96084 0.97973,-1.64874 0.90799,0.15381 0.43748,1.65006 0.17414,2.06964 1.22026,0.23227 1.70837,1.06665 1.39263,1.60833 -0.49674,0.85218 -1.63881,-0.15746 -1.84073,-0.10621 -3.71668,0.94335 -4.74947,2.29504 -7.81415,1.84194 -2.21755,-0.32786 -5.38316,-2.18206 -6.91661,-6.0985 -0.73184,-1.86914 -1.28886,-4.34458 -1.35098,-7.05267 -0.1261,-5.49828 -0.0208,-4.65533 -0.0208,-4.65533 l -3.84497,-0.017 c -2.13285,-0.009 -4.92031,-2.38147 -4.92031,-4.87774 0,-1.20239 -0.003,-3.74453 -0.003,-4.26081 0,-0.52722 1.04922,-2.07048 2.2236,-2.07048 z"
       style="fill:#4d4d4d;fill-opacity:1;stroke:none;stroke-width:0.31510276px;stroke-linecap:butt;stroke-linejoin:miter;stroke-opacity:1" />
    <path
       style="opacity:0.21005919;fill:url(#linearGradient2407);fill-opacity:1;stroke:none;stroke-width:0.26458332px;stroke-linecap:butt;stroke-linejoin:miter;stroke-opacity:1"
       d="m -360.9423,144.63638 1.98535,-3.16183 4.19127,3.60301 -1.98533,2.42654 z"
       id="path2399"
       inkscape:connector-curvature="0" />
    <ellipse
       style="opacity:0.98000004;fill:#f6ffd5;fill-opacity:1;stroke:none;stroke-width:0.45648462;stroke-miterlimit:4;stroke-dasharray:none;stroke-opacity:1"
       id="ellipse2321"
       cx="-303.89328"
       cy="-240.16908"
       rx="1.8716199"
       ry="1.3590949"
       transform="rotate(-60.000001)" />
    <path
       inkscape:connector-curvature="0"
       id="path2409"
       d="m -367.65274,144.63826 1.35018,-2.87397 4.70636,3.99268 -1.65878,1.89028 z"
       style="opacity:0.21005919;fill:url(#linearGradient2411);fill-opacity:1;stroke:none;stroke-width:0.26458332px;stroke-linecap:butt;stroke-linejoin:miter;stroke-opacity:1"
       sodipodi:nodetypes="ccccc" />
    <ellipse
       transform="matrix(-0.49999999,-0.86602541,-0.86602541,0.49999999,0,0)"
       ry="1.4260464"
       rx="1.9638196"
       cy="389.41885"
       cx="59.417645"
       id="ellipse2323"
       style="opacity:0.98000004;fill:#f6ffd5;fill-opacity:1;stroke:none;stroke-width:0.45648465;stroke-miterlimit:4;stroke-dasharray:none;stroke-opacity:1" />
    <text
       id="text1197"
       y="222.77434"
       x="-365.85669"
       style="font-style:normal;font-weight:normal;font-size:9.45335674px;line-height:1.25;font-family:sans-serif;letter-spacing:0px;word-spacing:0px;fill:#3daee7;fill-opacity:1;stroke:none;stroke-width:0.23633392"
       xml:space="preserve"><tspan
         style="font-style:normal;font-variant:normal;font-weight:800;font-stretch:normal;font-size:9.45335674px;font-family:'League Spartan';-inkscape-font-specification:'League Spartan, Ultra-Bold';font-variant-ligatures:normal;font-variant-caps:normal;font-variant-numeric:normal;font-feature-settings:normal;text-align:start;writing-mode:lr-tb;text-anchor:start;fill:#3daee7;fill-opacity:1;stroke-width:0.23633392"
         y="222.77434"
         x="-365.85669"
         id="tspan1195"
         sodipodi:role="line">O</tspan></text>
    <path
       style="fill:#3daee7;fill-opacity:1;stroke:none;stroke-width:0.09942084px;stroke-linecap:butt;stroke-linejoin:miter;stroke-opacity:1"
       d="m -360.70619,220.94113 c 0.35377,2.00395 1.79954,1.8345 1.49782,2.09812 -0.29029,0.25362 -1.61671,0.39898 -2.64885,-1.46974 0.0238,0.0298 0.61699,-0.31255 0.78778,-0.56906 0.26296,-0.14131 0.36325,-0.0594 0.36325,-0.0594 z"
       id="path1806"
       inkscape:connector-curvature="0"
       sodipodi:nodetypes="cscccc" />
  </g>
</svg>
