<?xml version="1.0" encoding="UTF-8" standalone="no"?>
<svg id="svg94" width="1024" height="500" version="1.1" viewBox="0 0 1024 500" sodipodi:docname="featureGraphic.svg" inkscape:version="1.4 (e7c3feb100, 2024-10-09)" xml:space="preserve" inkscape:export-filename="featureGraphic.png" inkscape:export-xdpi="96" inkscape:export-ydpi="96" xmlns:inkscape="http://www.inkscape.org/namespaces/inkscape" xmlns:sodipodi="http://sodipodi.sourceforge.net/DTD/sodipodi-0.dtd" xmlns="http://www.w3.org/2000/svg" xmlns:svg="http://www.w3.org/2000/svg"><defs id="defs9" /><sodipodi:namedview id="namedview9" pagecolor="#ffffff" bordercolor="#666666" borderopacity="1.0" inkscape:showpageshadow="2" inkscape:pageopacity="0.0" inkscape:pagecheckerboard="0" inkscape:deskcolor="#d1d1d1" showgrid="true" inkscape:zoom="0.58957234" inkscape:cx="524.95678" inkscape:cy="139.08387" inkscape:window-width="1600" inkscape:window-height="826" inkscape:window-x="0" inkscape:window-y="0" inkscape:window-maximized="1" inkscape:current-layer="svg94"><sodipodi:guide position="0,500" orientation="0,1024" id="guide9" inkscape:locked="false" /><sodipodi:guide position="1024,500" orientation="500,0" id="guide10" inkscape:locked="false" /><sodipodi:guide position="1024,0" orientation="0,-1024" id="guide11" inkscape:locked="false" /><sodipodi:guide position="0,0" orientation="-500,0" id="guide12" inkscape:locked="false" /><sodipodi:guide position="0,500" orientation="0,1024" id="guide14" inkscape:locked="false" /><sodipodi:guide position="1024,500" orientation="500,0" id="guide15" inkscape:locked="false" /><sodipodi:guide position="1024,0" orientation="0,-1024" id="guide16" inkscape:locked="false" /><sodipodi:guide position="0,0" orientation="-500,0" id="guide17" inkscape:locked="false" /><inkscape:grid id="grid1" units="px" originx="512" originy="400" spacingx="50" spacingy="50" empcolor="#3f52ff" empopacity="0.25098039" color="#3f3fff" opacity="0.1254902" empspacing="5" enabled="true" visible="true" /></sodipodi:namedview><g id="g1" style="display:inline"><rect id="rect34" width="1024" height="500" fill="#93cee9" inkscape:label="rect34" x="0" y="0" /><g id="g1780" transform="matrix(3.3,0,0,3.3,610,150)" fill="#ffffff" stroke-width="0.0795159"><path id="path1176" d="m 64.863,39.705 c -0.19859,-0.0098 -0.39042,0.05001 -0.54845,0.20805 l -3.4261,3.4261 c -0.31607,0.31607 -0.31607,0.8249 0,1.141 l 3.5396,5.56 c -0.28331,0.57157 -0.52863,1.1612 -0.7344,1.7651 l -6.4299,1.4278 c -0.44702,0 -0.80689,0.35986 -0.80689,0.80689 v 4.8413 c 0,0.44702 0.37053,0.70992 0.80689,0.80689 l 6.4331,1.431 c 0.19926,0.59792 0.4372,1.1823 0.71234,1.7493 l -3.5459,5.5726 c -0.24001,0.37712 -0.31607,0.8249 0,1.141 l 3.423,3.4261 c 0.31607,0.31607 0.8249,0.31607 1.141,0 l 5.5726,-3.5491 c 0.57645,0.28716 1.1714,0.53564 1.7808,0.74385 l 1.4278,6.4299 c 0,0.44702 0.35986,0.80689 0.80689,0.80689 h 4.8413 c 0.44702,0 0.70992,-0.37053 0.80689,-0.80689 l 1.431,-6.4331 c 0.60682,-0.20232 1.1996,-0.44446 1.7745,-0.72494 l 5.5474,3.5333 c 0.31607,0.31607 0.8249,0.31607 1.141,0 l 3.4261,-3.4261 c 0.31607,-0.31607 0.24001,-0.76386 0,-1.141 l -1.5129,-2.3765 -1.1284,0.45074 -3.6152,-5.4213 c -1.8219,4.0512 -5.849,6.6586 -10.291,6.6631 -6.2389,0 -11.296,-5.0576 -11.296,-11.296 0.005,-4.3585 2.5171,-8.3254 6.4551,-10.193 v -3.4734 c -0.54302,0.18585 -1.0745,0.40371 -1.5917,0.65244 l -5.5474,-3.5333 c -0.18859,-0.11997 -0.39396,-0.19853 -0.59255,-0.20805 z" style="stroke-width:0.0795159" /><path id="path1178" d="m 82.277,32.254 -8.0689,0.747 v 31.529 l 8.0689,-1.6138 v -12.91 l 9.6827,14.524 8.0689,-3.2276 -10.49,-13.578 10.496,-13.856 -8.4503,-1.6138 -9.3076,13.717 z" style="stroke-width:0.0795159" /></g><g id="g2300" transform="matrix(3.5,0,0,3.5,-227,25)" style="stroke-width:0.250577"><path id="path2315" d="m 192.29,51.271 c -6.33,27.114 -20.156,27.115 -20.307,28.247 -0.14065,1.0553 10.464,4.7878 23.81,-12.089 10.912,-13.8 5.9074,-15.597 5.9074,-15.597 z" fill="#f6ffd5" stroke-width="0.0662974" /><path id="path2317" d="m 229.99,51.271 c 6.33,27.114 18.484,27.115 18.635,28.247 0.14064,1.0553 -10.464,4.7878 -23.81,-12.089 -10.912,-13.8 -5.9075,-15.597 -5.9075,-15.597 z" fill="#f6ffd5" stroke-width="0.0662974" /><path id="path2319" d="m 173.3,23.812 h 62.957 c 9.759,0 15.057,9.5221 15.014,16.324 0,8.219 0.0489,7.5784 0.0489,9.9703 0,3.1481 -4.6148,6.3146 -6.9166,6.3146 -3.6195,0 -20.378,0.0062 -20.378,0.0062 -0.0244,1.2105 -0.0367,1.6289 -0.0244,13.482 0.006,7.707 0.31555,15.158 2.6899,20.434 1.7283,3.8399 4.7408,8.0529 9.9509,8.62 2.6198,0.28484 6.707,-0.90589 7.4338,-1.6911 1.3099,-1.415 -2.7253,-5.7005 3.0947,-4.7931 2.8679,0.44712 1.3817,4.7971 0.55037,6.0168 3.8546,0.67476 5.3965,3.101 4.3992,4.6757 -1.5692,2.4774 -5.1767,-0.45761 -5.8145,-0.30935 -11.74,2.7424 -15.002,6.6722 -24.683,5.3549 -7.0047,-0.95258 -17.004,-6.3436 -21.848,-17.73 -2.3117,-5.434 -4.0713,-12.63 -4.2674,-20.504 -0.39872,-15.984 -0.0612,-13.534 -0.0612,-13.534 l -12.145,-0.04669 c -6.7372,-0.02335 -15.542,-6.9234 -15.542,-14.181 0,-3.4955 -0.01,-10.886 -0.01,-12.387 0,-1.5327 3.3144,-6.0193 7.0239,-6.0193 z" fill="#4d4d4d" stroke-width="0.0662974" /><ellipse id="ellipse2321" transform="matrix(0.53141,-0.84712,0.88307,0.46924,0,0)" cx="68.000999" cy="209.71001" rx="5.5626998" ry="4.2101002" fill="#f6ffd5" opacity="0.98" stroke-width="0.0663677" /><ellipse id="ellipse2323" transform="matrix(-0.53141,-0.84712,-0.88307,0.46924,0,0)" cx="-130.23" cy="-147.17" rx="5.8367" ry="4.4175" fill="#f6ffd5" opacity="0.98" stroke-width="0.0663677" /></g></g>
<g inkscape:groupmode="layer" id="layer2" inkscape:label="Abdeckung" style="display:none" transform="translate(0,0.87382507)"><rect style="fill:#000000;fill-rule:evenodd" id="rect2" width="924" height="74.345001" x="50" y="-25" /><rect style="fill:#000000;fill-rule:evenodd" id="rect3" width="1030.9391" height="150" x="-38" y="450" /><rect style="fill:#000000;fill-rule:evenodd" id="rect4" width="88" height="758.87384" x="974" y="-58.873825" /><rect style="fill:#000000;fill-rule:evenodd" id="rect5" width="75.564445" height="720.14087" x="-25.564447" y="-58.873825" /><circle style="opacity:0.45;fill:#000000;stroke-width:0.377953;paint-order:fill markers stroke" id="path5-7" cx="772.54401" cy="121.55956" r="41.5" /><circle style="opacity:0.45;fill:#000000;stroke-width:0.377953;paint-order:fill markers stroke" id="path5" cx="124.5" cy="121.82473" r="41.5" /><circle style="opacity:0.45;fill:#000000;stroke-width:0.377953;paint-order:fill markers stroke" id="path5-7-3" cx="905.5" cy="121.55956" r="41.5" /></g></svg>
