<?xml version="1.0" encoding="UTF-8"?>
<svg id="svg94" width="1024" height="500" version="1.1" viewBox="0 0 270.93 132.29" xmlns="http://www.w3.org/2000/svg">
 <rect id="rect34" y="-2.7903e-17" width="270.93" height="132.29" rx="1.5801" ry="1.5959" fill="#93cee9" stroke-width=".26471"/>
 <g id="g1780" transform="translate(-2.5 12)" fill="#ffffff" stroke-width=".26458">
  <path id="path1176" d="m64.863 39.705c-0.19859-0.0098-0.39042 0.05001-0.54845 0.20805l-3.4261 3.4261c-0.31607 0.31607-0.31607 0.8249 0 1.141l3.5396 5.56c-0.28331 0.57157-0.52863 1.1612-0.7344 1.7651l-6.4299 1.4278c-0.44702 0-0.80689 0.35986-0.80689 0.80689v4.8413c0 0.44702 0.37053 0.70992 0.80689 0.80689l6.4331 1.431c0.19926 0.59792 0.4372 1.1823 0.71234 1.7493l-3.5459 5.5726c-0.24001 0.37712-0.31607 0.8249 0 1.141l3.423 3.4261c0.31607 0.31607 0.8249 0.31607 1.141 0l5.5726-3.5491c0.57645 0.28716 1.1714 0.53564 1.7808 0.74385l1.4278 6.4299c0 0.44702 0.35986 0.80689 0.80689 0.80689h4.8413c0.44702 0 0.70992-0.37053 0.80689-0.80689l1.431-6.4331c0.60682-0.20232 1.1996-0.44446 1.7745-0.72494l5.5474 3.5333c0.31607 0.31607 0.8249 0.31607 1.141 0l3.4261-3.4261c0.31607-0.31607 0.24001-0.76386 0-1.141l-1.5129-2.3765-1.1284 0.45074-3.6152-5.4213c-1.8219 4.0512-5.849 6.6586-10.291 6.6631-6.2389 0-11.296-5.0576-11.296-11.296 5e-3 -4.3585 2.5171-8.3254 6.4551-10.193v-3.4734c-0.54302 0.18585-1.0745 0.40371-1.5917 0.65244l-5.5474-3.5333c-0.18859-0.11997-0.39396-0.19853-0.59255-0.20805z"/>
  <path id="path1178" d="m82.277 32.254-8.0689 0.747v31.529l8.0689-1.6138v-12.91l9.6827 14.524 8.0689-3.2276-10.49-13.578 10.496-13.856-8.4503-1.6138-9.3076 13.717z"/>
 </g>
 <g id="g2300" transform="translate(-16 6.5)" >
   <path id="path2315" d="m192.29 51.271c-6.33 27.114-20.156 27.115-20.307 28.247-0.14065 1.0553 10.464 4.7878 23.81-12.089 10.912-13.8 5.9074-15.597 5.9074-15.597z" fill="#f6ffd5" stroke-width=".26458"/>
   <path id="path2317" d="m229.99 51.271c6.33 27.114 18.484 27.115 18.635 28.247 0.14064 1.0553-10.464 4.7878-23.81-12.089-10.912-13.8-5.9075-15.597-5.9075-15.597z" fill="#f6ffd5" stroke-width=".26458"/>
   <path id="path2319" d="m173.3 23.812h62.957c9.759 0 15.057 9.5221 15.014 16.324 0 8.219 0.0489 7.5784 0.0489 9.9703 0 3.1481-4.6148 6.3146-6.9166 6.3146-3.6195 0-20.378 0.0062-20.378 0.0062-0.0244 1.2105-0.0367 1.6289-0.0244 13.482 6e-3 7.707 0.31555 15.158 2.6899 20.434 1.7283 3.8399 4.7408 8.0529 9.9509 8.62 2.6198 0.28484 6.707-0.90589 7.4338-1.6911 1.3099-1.415-2.7253-5.7005 3.0947-4.7931 2.8679 0.44712 1.3817 4.7971 0.55037 6.0168 3.8546 0.67476 5.3965 3.101 4.3992 4.6757-1.5692 2.4774-5.1767-0.45761-5.8145-0.30935-11.74 2.7424-15.002 6.6722-24.683 5.3549-7.0047-0.95258-17.004-6.3436-21.848-17.73-2.3117-5.434-4.0713-12.63-4.2674-20.504-0.39872-15.984-0.0612-13.534-0.0612-13.534l-12.145-0.04669c-6.7372-0.02335-15.542-6.9234-15.542-14.181 0-3.4955-0.01-10.886-0.01-12.387 0-1.5327 3.3144-6.0193 7.0239-6.0193z" fill="#4d4d4d" stroke-width=".26458"/>
   <ellipse id="ellipse2321" transform="matrix(.53141 -.84712 .88307 .46924 0 0)" cx="68.001" cy="209.71" rx="5.5627" ry="4.2101" fill="#f6ffd5" opacity=".98" stroke-width=".26486"/>
   <ellipse id="ellipse2323" transform="matrix(-.53141 -.84712 -.88307 .46924 0 0)" cx="-130.23" cy="-147.17" rx="5.8367" ry="4.4175" fill="#f6ffd5" opacity=".98" stroke-width=".26486"/>
 </g>
 <!--
 <line x1="10" x2="10" y1="0" y2="133" stroke="red" stroke-width="1" />
<line x1="260" x2="260" y1="0" y2="133" stroke="red" stroke-width="1" />
<line x1="0" x2="270" y1="20" y2="20" stroke="red" stroke-width="1" />
<line x1="0" x2="270" y1="123" y2="123" stroke="red" stroke-width="1" />
<line x1="0" x2="270" y1="66" y2="66" stroke="darkred" stroke-width="1" />
<line x1="135" x2="135" y1="0" y2="133" stroke="darkred" stroke-width="1" />
<line x1="195" x2="195" y1="0" y2="133" stroke="darkred" stroke-width="0.5" />
<line x1="75" x2="75" y1="0" y2="133" stroke="darkred" stroke-width="0.5" />
<line x1="230" x2="230" y1="0" y2="133" stroke="darkred" stroke-width="0.5" />
 -->
</svg>
